<svg width="1600" height="1200" viewBox="0 0 1600 1200" fill="none" xmlns="http://www.w3.org/2000/svg">
  <rect width="1600" height="1200" fill="#0A1110"/>
  <rect width="1600" height="1200" fill="url(#bg)"/>
  <circle cx="1300" cy="188" r="280" fill="#34D399" opacity="0.18"/>
  <circle cx="246" cy="998" r="240" fill="#F59E0B" opacity="0.1"/>
  <rect x="142" y="146" width="1316" height="908" rx="44" fill="rgba(9,18,17,0.62)" stroke="rgba(255,255,255,0.14)" stroke-width="2"/>
  <rect x="212" y="220" width="244" height="18" rx="9" fill="rgba(255,255,255,0.22)"/>
  <rect x="212" y="292" width="366" height="294" rx="30" fill="rgba(255,255,255,0.06)"/>
  <rect x="632" y="292" width="286" height="294" rx="30" fill="rgba(255,255,255,0.06)"/>
  <rect x="970" y="292" width="334" height="294" rx="30" fill="rgba(255,255,255,0.06)"/>
  <rect x="246" y="340" width="140" height="16" rx="8" fill="#F8FAFC"/>
  <rect x="246" y="378" width="204" height="12" rx="6" fill="rgba(248,250,252,0.5)"/>
  <path d="M248 516L320 462L402 490L478 420L542 440" stroke="#34D399" stroke-width="8" stroke-linecap="round" stroke-linejoin="round"/>
  <circle cx="542" cy="440" r="10" fill="#34D399"/>
  <rect x="664" y="340" width="96" height="16" rx="8" fill="#F8FAFC"/>
  <rect x="664" y="378" width="168" height="12" rx="6" fill="rgba(248,250,252,0.5)"/>
  <circle cx="775" cy="458" r="78" stroke="#F59E0B" stroke-width="22" opacity="0.85"/>
  <path d="M776 380C818 380 858 399 886 430" stroke="#34D399" stroke-width="22" stroke-linecap="round"/>
  <rect x="1002" y="340" width="160" height="16" rx="8" fill="#F8FAFC"/>
  <rect x="1002" y="378" width="210" height="12" rx="6" fill="rgba(248,250,252,0.5)"/>
  <rect x="1002" y="432" width="270" height="26" rx="13" fill="rgba(248,250,252,0.08)"/>
  <rect x="1002" y="474" width="222" height="26" rx="13" fill="rgba(248,250,252,0.08)"/>
  <rect x="212" y="654" width="1092" height="302" rx="34" fill="rgba(255,255,255,0.06)"/>
  <path d="M276 874L416 756L560 792L706 700L846 732L1004 628L1182 684" stroke="#34D399" stroke-width="10" stroke-linecap="round" stroke-linejoin="round"/>
  <path d="M276 908L416 820L560 842L706 780L846 804L1004 744L1182 770" stroke="rgba(248,250,252,0.36)" stroke-width="8" stroke-linecap="round" stroke-linejoin="round"/>
  <text x="206" y="1048" fill="#F8FAFC" font-family="Inter, Arial, sans-serif" font-size="74" font-weight="700">TopTier Strategy</text>
  <text x="208" y="1100" fill="rgba(248,250,252,0.72)" font-family="Inter, Arial, sans-serif" font-size="28" letter-spacing="4">RESEARCH, BUILD, TRACK</text>
  <defs>
    <linearGradient id="bg" x1="110" y1="86" x2="1454" y2="1086" gradientUnits="userSpaceOnUse">
      <stop stop-color="#122321"/>
      <stop offset="1" stop-color="#0A1110"/>
    </linearGradient>
  </defs>
</svg>
